<svg version="1.1" id="Layer_1" xmlns="http://www.w3.org/2000/svg" xmlns:xlink="http://www.w3.org/1999/xlink" x="0px" y="0px"
	 width="100%" viewBox="0 0 240 256" enable-background="new 0 0 240 256" xml:space="preserve">
<path fill="#000000" opacity="1.000000" stroke="none" 
	d="
M117.468399,257.000000 
	C109.542419,255.460403 102.023712,254.167953 94.637230,252.340912 
	C48.279552,240.874405 11.129725,200.384537 3.472065,153.397110 
	C2.836152,149.495148 3.044130,145.393524 1.145353,141.344299 
	C1.000000,139.611115 1.000000,138.222214 1.000000,136.416656 
	C2.183793,126.956902 1.640073,117.798744 3.464644,108.761803 
	C12.931768,61.871887 39.752773,29.175104 84.589935,12.935110 
	C144.396164,-8.726663 207.970947,16.569221 238.321777,72.603851 
	C239.034180,73.919136 239.795959,75.207695 240.767365,76.754364 
	C241.000000,80.030594 241.000000,83.061188 241.000000,86.545891 
	C237.720428,83.736839 236.785828,79.187973 234.664856,75.291718 
	C215.241516,39.610832 185.683701,17.962585 145.592377,11.245188 
	C83.148956,0.782639 20.681376,42.532291 7.593496,108.656281 
	C-5.403339,174.320297 41.392220,240.464233 107.216843,250.856201 
	C163.593933,259.756653 215.774887,228.782608 237.458633,181.040817 
	C238.350082,179.078049 239.372513,177.174789 240.666962,175.121887 
	C241.000000,178.030594 241.000000,181.061188 240.800018,184.820160 
	C239.930420,186.698288 239.225693,187.829147 238.596344,189.000519 
	C221.760147,220.337219 196.445435,241.277939 162.305725,251.567719 
	C153.994263,254.072815 145.340485,254.758484 137.000000,257.000000 
	C130.645599,257.000000 124.291206,257.000000 117.468399,257.000000 
z"/>
<path fill="#000000" opacity="1.000000" stroke="none" 
	d="
M115.901489,110.512154 
	C115.502998,99.490211 121.313194,94.204544 131.413300,92.693481 
	C138.270538,91.667587 144.414612,89.057602 151.658569,92.059929 
	C154.083099,93.064796 158.318420,90.158058 162.145020,91.317352 
	C170.170578,93.748734 174.372635,100.299332 172.654922,108.466522 
	C172.107986,111.067078 172.242050,113.045792 174.376938,115.187057 
	C178.742432,119.565590 178.622162,126.139290 174.676910,131.021652 
	C173.533966,132.436096 172.457367,133.908890 171.420898,135.403824 
	C167.479126,141.089172 160.881699,142.690201 155.391541,138.478928 
	C152.113800,135.964691 150.016602,136.720871 147.757278,139.157791 
	C145.045197,142.083084 142.240204,144.979874 139.952759,148.225433 
	C137.557831,151.623489 134.974991,151.919266 131.364029,150.457809 
	C123.457428,147.257828 122.108582,144.687408 125.198547,136.893723 
	C126.569923,133.434738 126.786415,129.779297 127.570587,126.224495 
	C128.059982,124.006027 127.186157,122.402916 124.908897,121.558075 
	C119.946671,119.717155 117.265694,115.892044 115.901489,110.512154 
z"/>
<path fill="#000000" opacity="1.000000" stroke="none" 
	d="
M86.827644,68.271240 
	C90.579964,69.498314 93.236908,71.952065 97.249763,72.381561 
	C100.876228,72.769707 100.291054,76.679497 99.034531,79.355522 
	C97.492081,82.640480 97.239281,84.981010 100.970901,87.126282 
	C104.303726,89.042297 105.623215,92.747894 106.209824,96.425293 
	C108.439056,110.399971 109.902000,124.446983 109.305252,138.628906 
	C109.161644,142.041595 109.708321,146.613831 105.930145,147.752930 
	C101.913651,148.963867 100.229179,144.549393 98.445175,141.694809 
	C90.721146,129.335480 85.530182,115.819275 80.694283,102.151085 
	C79.407883,98.515198 79.317261,94.796730 81.230850,91.507683 
	C82.930824,88.585777 81.757019,87.108948 79.704056,85.228035 
	C74.538704,80.495583 74.623199,79.247681 80.147758,74.954948 
	C81.189323,74.145630 81.605392,73.280037 81.849426,72.102829 
	C82.360641,69.636719 84.063438,68.514359 86.827644,68.271240 
z"/>
<path fill="#000000" opacity="1.000000" stroke="none" 
	d="
M134.664795,82.680267 
	C124.333832,89.886230 113.033401,86.370834 110.289581,75.446983 
	C108.714172,69.174873 111.975143,61.962353 118.265305,59.455486 
	C121.626114,58.116070 123.019402,56.476662 122.756439,52.941566 
	C122.623260,51.151360 123.212013,49.317631 125.181328,48.353752 
	C128.714935,49.746056 130.367920,54.961033 135.749664,52.983910 
	C137.495850,52.342403 137.974274,55.035709 136.778900,56.606892 
	C135.903854,57.757053 134.615158,58.592503 133.282501,59.769974 
	C139.007736,67.031128 141.113159,74.492035 134.664795,82.680267 
z"/>
<path fill="#000000" opacity="1.000000" stroke="none" 
	d="
M136.087265,178.836945 
	C138.311157,181.736221 139.534027,184.931473 142.365219,187.238937 
	C146.796799,184.570801 147.380829,178.379089 152.898529,175.770294 
	C152.898529,183.807022 152.898529,191.234970 152.898529,199.283234 
	C149.503769,196.953857 150.979263,193.944992 150.740311,191.484833 
	C150.487991,188.886963 150.683716,186.245575 150.683716,182.910812 
	C146.773514,185.416656 146.110748,189.682068 143.017288,192.016418 
	C138.950256,190.821533 138.741379,185.849121 135.112854,183.854401 
	C132.922150,188.844009 135.653732,194.251328 132.058960,198.783661 
	C132.058960,191.207138 132.058960,183.630615 132.058960,176.055542 
	C134.342590,175.860184 134.893982,177.489624 136.087265,178.836945 
z"/>
<path fill="#000000" opacity="1.000000" stroke="none" 
	d="
M61.775810,191.190033 
	C61.158875,193.994797 62.131432,196.799057 59.273678,200.298645 
	C58.239429,191.445435 58.462627,183.982162 59.050694,176.015823 
	C61.925415,177.258240 61.441895,179.300888 61.340916,180.891830 
	C61.099159,184.700745 62.867928,186.016556 66.429092,185.679657 
	C67.749496,185.554764 69.094231,185.604385 70.423218,185.669479 
	C73.490402,185.819717 74.644035,184.332825 74.339211,181.380798 
	C74.141808,179.469055 73.767204,177.462173 75.411713,175.769913 
	C78.018723,179.139160 78.135162,195.200974 75.609978,198.893875 
	C72.557884,196.009201 76.901291,189.639847 71.284554,188.615417 
	C68.250420,188.062042 64.187485,186.807892 61.775810,191.190033 
z"/>
<path fill="#000000" opacity="1.000000" stroke="none" 
	d="
M115.750717,177.760132 
	C118.232224,178.770798 117.554489,182.549515 121.160736,182.303757 
	C116.496529,187.109451 116.130341,193.658478 119.886986,198.316437 
	C116.376190,199.456818 115.226601,199.030670 114.813965,196.018417 
	C114.522560,193.891083 114.664017,191.697830 114.692139,189.535049 
	C114.725861,186.942108 114.802528,184.491745 111.271233,183.990509 
	C108.029724,183.530411 106.292786,185.151657 105.049568,187.791519 
	C104.161942,189.676315 104.385612,191.690338 104.237946,193.674362 
	C104.112610,195.358170 104.950630,197.357819 102.350853,199.050400 
	C100.682343,193.622955 101.304993,188.506973 101.765511,183.086639 
	C104.627037,182.586777 107.369942,181.629761 110.059364,181.761856 
	C113.242241,181.918198 114.527161,180.367722 115.750717,177.760132 
z"/>
<path fill="#000000" opacity="1.000000" stroke="none" 
	d="
M168.352692,181.949173 
	C170.184311,182.317322 171.628067,182.573303 173.653885,182.932495 
	C174.461945,187.973846 174.127060,193.162781 173.821472,198.690353 
	C168.648376,198.499481 163.288712,202.039032 159.315826,196.593689 
	C156.896118,193.277176 156.712662,189.432007 158.591965,185.729065 
	C160.562256,181.846878 164.063202,181.267532 168.352692,181.949173 
M161.188416,187.012894 
	C160.126205,188.843140 160.000183,190.824707 160.509995,192.798630 
	C161.411514,196.289383 164.921158,198.306168 167.638092,196.903717 
	C170.246155,195.557465 171.468506,193.143494 171.434540,190.369720 
	C171.402527,187.754456 170.041504,185.653015 167.572998,184.423050 
	C164.902496,183.092422 163.187820,184.588730 161.188416,187.012894 
z"/>
<path fill="#000000" opacity="1.000000" stroke="none" 
	d="
M80.829010,191.720032 
	C81.396904,184.339661 85.186470,180.862610 91.261780,181.689880 
	C96.036110,182.339996 99.188179,187.137558 98.201263,192.582413 
	C97.483742,196.540985 95.401924,199.195847 90.953491,199.470383 
	C85.221474,199.824158 83.123756,198.388245 80.829010,191.720032 
M84.917923,194.571411 
	C86.808495,197.118149 89.046143,198.430023 92.181358,196.649460 
	C95.421425,194.809311 96.581924,190.979553 94.717049,187.585266 
	C93.252281,184.919250 91.199448,183.065018 87.826248,184.369766 
	C84.272430,185.744400 83.085609,189.297897 84.917923,194.571411 
z"/>
<path fill="#000000" opacity="1.000000" stroke="none" 
	d="
M187.802368,182.165131 
	C191.350433,181.343460 194.316055,181.358109 196.488632,184.473129 
	C194.467651,186.337921 193.175186,184.210556 191.639038,184.216492 
	C190.027435,184.222733 188.478973,184.378448 188.031677,186.140289 
	C187.611542,187.795044 189.070709,188.406830 190.265289,188.996796 
	C190.856949,189.288986 191.509766,189.463943 192.144394,189.661392 
	C195.021469,190.556534 197.629700,191.852325 197.153641,195.447525 
	C196.757721,198.437256 194.344803,199.455154 191.686050,199.603668 
	C188.526169,199.780167 185.426163,199.550858 184.360901,195.514374 
	C186.835739,194.454895 187.730774,196.855637 189.388763,197.264664 
	C191.466446,197.777206 193.193192,197.338760 193.905457,195.313889 
	C194.584824,193.382523 192.883240,192.782135 191.455811,192.243561 
	C190.521164,191.890930 189.534470,191.663559 188.625183,191.258636 
	C183.811996,189.115326 183.399170,185.914902 187.802368,182.165131 
z"/>
<path fill="#000000" opacity="1.000000" stroke="none" 
	d="
M180.916138,187.472900 
	C180.698990,191.441727 180.474960,195.010178 180.232590,198.870575 
	C177.183487,196.094116 176.894379,186.387741 179.434189,182.187973 
	C181.206512,183.455917 180.591156,185.413071 180.916138,187.472900 
z"/>
<path fill="#000000" opacity="1.000000" stroke="none" 
	d="
M126.431915,196.856125 
	C126.104767,198.668793 124.713348,199.648209 124.385109,198.007339 
	C123.314613,192.656052 123.203293,187.185760 124.540886,181.877548 
	C125.175522,181.860977 125.810150,181.844421 126.444786,181.827866 
	C126.444786,186.706055 126.444786,191.584229 126.431915,196.856125 
z"/>
</svg>